<?xml version="1.0" standalone="no"?>
<svg xmlns="http://www.w3.org/2000/svg" viewBox="0 0 125 76" width="125" height="76"><g fill="#f3722c" color="#f3722c" transform="translate(40.364 0) scale(0.8301887) "><svg width="53.0" height="53.0" x="0.0" y="0.0" viewBox="0 0 53 53"><path fill="currentColor" fill-rule="evenodd" d="M47.767 8.544a98.565 98.565 0 0 1-7.287 9.516.982.982 0 0 0-.199-.04h-6.36a1.06 1.06 0 0 0-1.046 1.234l1.052 6.309a81.588 81.588 0 0 1-7.39 7.265l-7.165-2.047a1.06 1.06 0 0 0-1.33 1.227l1.06 5.3c.015.052.035.1.057.147-3.732 2.038-7.847 4.076-10.704 5.455 8.78-12.241 25.257-32.704 41.841-40.024a51.333 51.333 0 0 1-2.529 5.658zM35.172 20.14h3.553a209.062 209.062 0 0 1-2.984 3.418l-.569-3.418zm-14.71 13.157l3.902 1.115a73.381 73.381 0 0 1-3.286 1.974l-.616-3.09zM12.48 23.27c.078.026.159.043.24.049h5.301a1.06 1.06 0 0 0 1.06-1.06v-6.064a82.995 82.995 0 0 1 8.222-6.708c.082.028.17.046.258.052h6.36a1.06 1.06 0 0 0 1.06-1.06V4.889a23.605 23.605 0 0 1 7.33-2.297 88.944 88.944 0 0 1 4.501-.397c-16.24 8.399-31.618 27.561-40.038 39.353.638-4.911 2.184-13.121 5.706-18.277zm4.481-5.034V21.2h-2.82a69.94 69.94 0 0 1 2.82-2.963zm15.9-12.266V7.42h-2.478c.824-.515 1.65-.995 2.477-1.45zm20.098-4.695a1.03 1.03 0 0 0-.025-.588 1.064 1.064 0 0 0-1.366-.621c-.07.026-.142.061-.214.088-1.235-.22-3.765-.28-9.277.328a26.337 26.337 0 0 0-8.552 2.776c-.016.007-.03.017-.048.025-8.375 4.17-17.006 11.952-21.558 17.223-6.182 7.158-7.468 21.974-7.651 24.621C1.86 48.64.395 51.001.158 51.384A1.061 1.061 0 0 0 1.961 52.5l.002-.005c.06-.096 1.516-2.438 4.012-6.059 1.865-.867 13.94-6.53 20.05-10.572C32.772 31.4 47.66 13.07 49.615 9.581a66.012 66.012 0 0 0 3.323-7.684.951.951 0 0 0 .021-.621z"></path></svg></g><path fill="#343a40" fill-rule="nonzero" d="M12.84 13.90L12.84 13.90Q12.84 16.32 11.06 17.70Q9.29 19.08 6.53 19.08L6.53 19.08Q4.34 19.08 2.30 17.88L2.30 17.88Q1.30 17.26 0.65 16.12Q0 14.98 0 13.51L0 13.51L3.02 13.37Q3.02 14.66 4.13 15.38Q5.23 16.10 6.58 16.10L6.58 16.10Q9.58 16.10 9.58 13.99L9.58 13.99Q9.58 12.26 7.54 11.95L7.54 11.95L4.75 11.66Q2.66 11.35 1.44 10.18Q0.22 9 0.22 6.79Q0.22 4.58 1.97 3.14Q3.72 1.70 6.40 1.70Q9.07 1.70 10.70 3.06Q12.34 4.42 12.34 6.55L12.34 6.55L9.36 6.70Q8.95 4.61 6.55 4.61L6.55 4.61Q5.09 4.61 4.26 5.23Q3.43 5.86 3.43 6.71Q3.43 7.56 4.03 8.05Q4.63 8.54 5.52 8.66L5.52 8.66L8.26 8.95Q12.84 9.58 12.84 13.90ZM21.12 16.30L21.12 18.94L19.18 18.94Q17.40 18.94 16.48 17.88Q15.55 16.82 15.55 15.36L15.55 15.36L15.55 8.16L14.23 8.16L14.23 5.78L15.55 5.78L15.55 3.10L18.67 3.10L18.67 5.78L20.88 5.78L20.88 8.16L18.67 8.16L18.67 15.17Q18.67 16.30 19.75 16.30L19.75 16.30L21.12 16.30ZM31.13 12.74L31.13 12.74L31.13 11.50Q31.13 9.72 30.61 8.78Q30.10 7.85 28.46 7.85L28.46 7.85Q25.82 7.85 25.82 11.40L25.82 11.40L25.82 12.65Q25.82 16.46 28.46 16.46L28.46 16.46Q30.17 16.46 30.70 15.19L30.70 15.19Q31.13 14.18 31.13 12.74ZM34.25 12.02L34.25 12.02Q34.25 16.46 32.57 17.98L32.57 17.98Q31.15 19.27 28.46 19.27L28.46 19.27Q25.03 19.27 23.83 17.26L23.83 17.26Q22.70 15.41 22.70 12.02L22.70 12.02Q22.70 8.86 23.83 7.06L23.83 7.06Q25.08 5.04 28.38 5.04Q31.68 5.04 32.96 6.80Q34.25 8.57 34.25 12.02ZM44.02 5.28L44.02 5.28L43.15 8.35Q42.79 8.21 42.34 8.21L42.34 8.21Q41.14 8.21 39.38 9.24L39.38 9.24L39.38 18.94L36.26 18.94L36.26 5.23L38.59 5.23L39.31 6.43L42.62 5.06Q42.86 5.04 43.27 5.04Q43.68 5.04 44.02 5.28ZM52.82 5.23L56.11 5.23L50.90 20.47Q50.54 21.50 49.97 22.08L49.97 22.08Q49.01 23.04 47.28 23.04L47.28 23.04L45.82 23.04L45.82 20.23L46.78 20.23Q47.45 20.23 47.77 20.00Q48.10 19.78 48.34 19.10L48.34 19.10L48.58 18.43L44.45 5.23L47.74 5.23L50.18 14.76L52.82 5.23ZM63.82 16.30L63.82 18.94L61.87 18.94Q60.10 18.94 59.17 17.88Q58.25 16.82 58.25 15.36L58.25 15.36L58.25 8.16L56.93 8.16L56.93 5.78L58.25 5.78L58.25 3.10L61.37 3.10L61.37 5.78L63.58 5.78L63.58 8.16L61.37 8.16L61.37 15.17Q61.37 16.30 62.45 16.30L62.45 16.30L63.82 16.30ZM76.68 12.82L76.68 12.82L68.69 12.82Q68.69 14.69 69.28 15.55Q69.86 16.42 71.64 16.42L71.64 16.42Q72.79 16.42 73.34 15.68Q73.90 14.95 73.90 14.28L73.90 14.28L76.70 14.28Q76.70 16.85 75.32 18.05Q73.94 19.25 71.68 19.25Q69.41 19.25 68.16 18.60L68.16 18.60Q65.59 17.28 65.59 11.59L65.59 11.59Q65.59 8.21 67.06 6.64Q68.52 5.06 71.52 5.06L71.52 5.06Q76.73 5.06 76.73 10.85L76.73 10.85Q76.73 11.47 76.68 12.82ZM68.76 10.68L68.76 10.68L73.90 10.68Q73.90 9.10 73.30 8.38Q72.70 7.66 71.46 7.66Q70.22 7.66 69.49 8.39Q68.76 9.12 68.76 10.68ZM82.56 0.89L82.56 18.94L79.44 18.96L79.44 0.89L82.56 0.89ZM88.92 0.89L88.92 18.94L85.80 18.96L85.80 0.89L88.92 0.89ZM99.55 5.28L99.55 5.28L98.69 8.35Q98.33 8.21 97.87 8.21L97.87 8.21Q96.67 8.21 94.92 9.24L94.92 9.24L94.92 18.94L91.80 18.94L91.80 5.23L94.13 5.23L94.85 6.43L98.16 5.06Q98.40 5.04 98.81 5.04Q99.22 5.04 99.55 5.28ZM104.94 15.71Q105.31 16.08 105.31 17.28Q105.31 18.48 104.94 18.86Q104.57 19.25 103.37 19.25Q102.17 19.25 101.78 18.86Q101.40 18.48 101.40 17.28Q101.40 16.08 101.78 15.71Q102.17 15.34 103.37 15.34Q104.57 15.34 104.94 15.71ZM108.72 5.74L111.84 5.74L111.84 19.44Q111.84 20.90 110.92 21.96Q109.99 23.02 108.19 23.02L108.19 23.02L106.42 23.02L106.42 20.38L107.62 20.38Q108.72 20.38 108.72 19.25L108.72 19.25L108.72 5.74ZM110.30 0Q111.43 0 111.77 0.35Q112.10 0.70 112.10 1.81Q112.10 2.93 111.76 3.28Q111.41 3.62 110.29 3.62Q109.18 3.62 108.83 3.26Q108.48 2.90 108.48 1.80Q108.48 0.70 108.83 0.35Q109.18 0 110.30 0ZM124.73 15.14L124.73 15.14L124.73 15.50Q124.58 17.30 123.20 18.22Q121.82 19.13 119.76 19.13L119.76 19.13Q116.71 19.13 115.49 18.02L115.49 18.02Q114.36 17.02 114.36 15.05L114.36 15.05L114.36 14.76L117.19 14.76Q117.19 15.86 117.77 16.27Q118.34 16.68 119.76 16.68L119.76 16.68Q121.68 16.68 121.68 15.29L121.68 15.29Q121.68 14.14 121.01 13.75L121.01 13.75Q120.70 13.56 120.22 13.46L120.22 13.46L117.79 13.06Q114.62 12.55 114.62 9.10L114.62 9.10Q114.62 7.18 116.03 6.11Q117.43 5.04 119.59 5.04L119.59 5.04Q124.51 5.04 124.51 9.29L124.51 9.29L124.51 9.60L121.80 9.60Q121.75 8.47 121.20 8.06Q120.65 7.66 119.65 7.66Q118.66 7.66 118.15 8.05Q117.65 8.45 117.65 8.93L117.65 8.93Q117.65 10.30 118.75 10.49L118.75 10.49L121.66 11.02Q124.73 11.59 124.73 15.14Z" transform="translate(0, 52)"></path></svg>