<svg xmlns="http://www.w3.org/2000/svg" viewBox="0 0 702.2 702.79"><path d="M726,24c4.45,2.27,9.59,4.32,10.35,9.86.79,5.79,1.8,11.74-.69,17.59-11.79,27.7-23.32,55.5-35.19,83.17-11,25.7-28.65,47.18-45.41,69.13-39.67,51.92-81.62,102-125.1,150.72-36.72,41.18-74.52,81.3-115.69,118.15-24.51,21.93-52.31,39-80.67,55.2-70.41,40.31-143.22,75.92-216.46,110.72a18.13,18.13,0,0,0-7,6Q85,682.05,60.2,719.89c-3.67,5.62-8.56,7.58-14.89,6.7a12.11,12.11,0,0,1-10.23-10.82,20.28,20.28,0,0,1,3.09-11.55c15-23.43,30.11-46.78,45.7-69.8a49.19,49.19,0,0,0,8.48-22.77c3.62-30.65,6.9-61.4,12.25-91.77,10.93-62.12,27.39-122.61,57.51-178.65,13.47-25.05,31.4-46.61,50.81-67.13,59.77-63.21,125.37-119.52,198.31-167,37.3-24.3,75.93-46.26,118.26-60.83,23-7.91,46.48-13.83,70.78-15.9,21.85-1.86,43.72-3.42,65.58-5.18A21.76,21.76,0,0,0,670,24h28c6.25.74,12.49,1.64,18.77,2.1,1.35.1,2.82-1.36,4.23-2.1ZM146.7,592.57l.71,1c1.46-.56,3-1,4.37-1.7,6.6-3.18,13.22-6.3,19.74-9.64Q228,553.29,284.35,524.31c3-1.54,4.2-3,3.38-6.94-4.75-22.58-9.12-45.24-13.48-67.89-1.85-9.63,4.45-16.79,14.17-16.19a37.48,37.48,0,0,1,7.77,1.64c27.5,7.8,55.07,15.38,82.41,23.7,6.31,1.92,10,.35,14.5-3.62a1166.37,1166.37,0,0,0,88.55-87.39,9.67,9.67,0,0,0,2.69-9c-1.84-10.63-3.57-21.28-5.37-31.92-2.49-14.73-5.07-29.44-7.49-44.18-2-12.31,4.18-18.76,16.17-18.53,26.32.51,52.66.06,79,.27a10,10,0,0,0,8.87-4.15c18.29-22.92,37.09-45.43,54.9-68.72,13.64-17.84,27.71-35.7,38.6-55.23,12.27-22,21.19-45.87,31.53-68.95a45.85,45.85,0,0,0,1.53-5.35c-2.71,1.13-4.23,1.73-5.71,2.4-49.69,22.53-95.4,51.65-139,84.23C481.54,205.2,413.85,270.74,350,340.32,279.53,417,214.81,498.29,153.7,582.51,151.31,585.82,149,589.21,146.7,592.57ZM654.26,54l-.51-1.24c-1.3,0-2.61-.1-3.9,0-16.53,1.56-33.07,3-49.58,4.78-34.41,3.68-66.88,14-98,28.83-3.59,1.71-4.71,3.9-4.66,7.73.21,13.5.09,27,.08,40.49,0,10.75-4.38,15.18-15.1,15.18-27.83,0-55.66-.06-83.48,0a10,10,0,0,0-5.47,1.72,1093.58,1093.58,0,0,0-103.46,84.11c-2.72,2.49-3.57,5.19-3.55,8.77.12,24.33.08,48.66.05,73,0,10.86-4.6,15.38-15.56,15.38-22.33,0-44.66.09-67-.07-3.56,0-5.69,1-7.67,4-21,32.62-34.73,68.43-45.78,105.37C139.39,479.77,131.79,518.2,125.78,557c-.89,5.74-1.46,11.54-2.18,17.32l1.33.45c1.1-1.36,2.27-2.67,3.29-4.08q55.92-78,116.81-152.17,58.61-71.24,122.56-137.71c34-35.09,69.28-68.79,106.35-100.6,54.87-47.09,112.75-89.9,176.81-123.87C652,55.65,653.09,54.78,654.26,54ZM507.93,336l1.54.86,38.69-44.41-1-1.48c-14.6,0-29.19-.06-43.78.15-.85,0-2.53,2.27-2.38,3.26C503.15,308.26,505.57,322.11,507.93,336ZM357.17,482.1c-.08-.55-.15-1.11-.22-1.67L305,465.6l8.54,42.75ZM221.61,304.5l.95,1.75c11.43,0,22.86.09,34.28-.17.89,0,2.44-2.44,2.47-3.78.23-8.32.12-16.65.12-25,0-3.38,0-6.76,0-10.15l-1.61-.62ZM438.15,121.34c.22.64.44,1.27.65,1.9,9.89,0,19.78.05,29.67-.09.83,0,2.33-1.29,2.35-2,.2-5.83.11-11.67.11-19Z" transform="translate(-35.04 -24)" style="fill:#fff"/></svg>